{"title":"Evil Dead 2013 BRRip XViD juggs","uid":8637558,"size":734580059,"categoryP":"video","categoryS":"movies","magnet":"?xt=urn:btih:dd65395e090229ae234a0195f20082429276bbaa&amp;dn=Evil+Dead+2013+BRRip+XViD+juggs&amp;tr=udp%3A%2F%2Ftracker.openbittorrent.com%3A80&amp;tr=udp%3A%2F%2Fopen.demonii.com%3A1337&amp;tr=udp%3A%2F%2Ftracker.coppersurfer.tk%3A6969&amp;tr=udp%3A%2F%2Fexodus.desync.com%3A6969","seeders":6,"leechers":0,"uploader":"juggs99","files":4,"time":1372798968,"description":"Source : SPARKS(Thanks)\n &lt;a href=&quot;\nhttp://www.imdb.com/title/tt1288558/&quot; rel=&quot;nofollow&quot; target=&quot;_NEW&quot;&gt;\nhttp://www.imdb.com/title/tt1288558/&lt;/a&gt;\n\nFormat                                   : AVI\nFormat/Info                              : Audio Video Interleave\nFile size                                : 697 MiB\nDuration                                 : 1h 31mn\nOverall bit rate                         : 1 067 Kbps\nWriting library                          : VirtualDub build 32842/release\n\nVideo\nID                                       : 0\nFormat                                   : MPEG-4 Visual\nFormat profile                           : Advanced Simple@L5\nFormat settings, BVOP                    : 2\nFormat settings, QPel                    : No\nFormat settings, GMC                     : No warppoints\nFormat settings, Matrix                  : Default (H.263)\nMuxing mode                              : Packed bitstream\nCodec ID                                 : XVID\nCodec ID/Hint                            : XviD\nDuration                                 : 1h 31mn\nBit rate                                 : 930 Kbps\nWidth                                    : 640 pixels\nHeight                                   : 272 pixels\nDisplay aspect ratio                     : 2.35:1\nFrame rate                               : 23.976 fps\nColor space                              : YUV\nChroma subsampling                       : 4:2:0\nBit depth                                : 8 bits\nScan type                                : Progressive\nCompression mode                         : Lossy\nBits/(Pixel*Frame)                       : 0.223\nStream size                              : 607 MiB (87%)\nWriting library                          : XviD 1.2.1 (UTC 2008-12-04)\n\nAudio\nID                                       : 1\nFormat                                   : MPEG Audio\nFormat version                           : Version 1\nFormat profile                           : Layer 3\nCodec ID                                 : 55\nCodec ID/Hint                            : MP3\nDuration                                 : 1h 31mn\nBit rate mode                            : Constant\nBit rate                                 : 128 Kbps\nChannel(s)                               : 2 channels\nSampling rate                            : 44.1 KHz\nCompression mode                         : Lossy\nStream size                              : 83.6 MiB (12%)\nAlignment                                : Split accross interleaves\nInterleave, duration                     : 42 ms (1.00 video frame)\nInterleave, preload duration             : 500 ms\nWriting library                          : LAME3.99r\n &lt;a href=&quot;\nhttp://img96.imageshack.us/img96/5759/8j0d.png&quot; rel=&quot;nofollow&quot; target=&quot;_NEW&quot;&gt;\nhttp://img96.imageshack.us/img96/5759/8j0d.png&lt;/a&gt; &lt;a href=&quot;\nhttp://img833.imageshack.us/img833/6804/u7r.png&quot; rel=&quot;nofollow&quot; target=&quot;_NEW&quot;&gt;\nhttp://img833.imageshack.us/img833/6804/u7r.png&lt;/a&gt; &lt;a href=&quot;\nhttp://img580.imageshack.us/img580/8653/ulkp.png&quot; rel=&quot;nofollow&quot; target=&quot;_NEW&quot;&gt;\nhttp://img580.imageshack.us/img580/8653/ulkp.png&lt;/a&gt; &lt;a href=&quot;\nhttp://img832.imageshack.us/img832/6996/a71q.png&quot; rel=&quot;nofollow&quot; target=&quot;_NEW&quot;&gt;\nhttp://img832.imageshack.us/img832/6996/a71q.png&lt;/a&gt;","torrent":{"xt":"urn:btih:dd65395e090229ae234a0195f20082429276bbaa","amp;dn":"Evil+Dead+2013+BRRip+XViD+juggs","amp;tr":["udp%3A%2F%2Ftracker.openbittorrent.com%3A80","udp%3A%2F%2Fopen.demonii.com%3A1337","udp%3A%2F%2Ftracker.coppersurfer.tk%3A6969","udp%3A%2F%2Fexodus.desync.com%3A6969"],"infoHash":"dd65395e090229ae234a0195f20082429276bbaa","infoHashBuffer":{"type":"Buffer","data":[221,101,57,94,9,2,41,174,35,74,1,149,242,0,130,66,146,118,187,170]},"announce":[],"urlList":[]}}